<?xml version="1.0" encoding="UTF-8" standalone="no"?>
<svg width="18px" height="15px" viewBox="0 0 18 15" version="1.1" xmlns="http://www.w3.org/2000/svg" xmlns:xlink="http://www.w3.org/1999/xlink">
    <!-- Generator: Sketch 45.1 (43504) - http://www.bohemiancoding.com/sketch -->
    <title>Shape</title>
    <desc>Created with Sketch.</desc>
    <defs></defs>
    <g id="Page-1" stroke="none" stroke-width="1" fill="none" fill-rule="evenodd">
        <g id="share-button-01-copy" transform="translate(-306.000000, -772.000000)" fill="#FFFFFF">
            <g id="contents" transform="translate(258.000000, 620.000000)">
                <g id="Group-4" transform="translate(0.781250, 139.697540)">
                    <g id="Group" transform="translate(46.531250, 10.709117)">
                        <path d="M6.46653074,16.1798736 C4.04532548,16.3129222 2.29667724,15.5146308 0.682540405,14.583291 C2.43118864,14.8493881 4.7178825,14.1841453 5.92848513,13.1197569 C4.17983688,12.9867083 3.10374566,12.0553684 2.56570005,10.5918343 C3.10374566,10.7248829 3.64179127,10.5918343 4.04532548,10.5918343 C2.43118864,10.0596401 1.35509742,9.12830022 1.22058602,6.99952334 C1.62412023,7.26562045 2.16216584,7.39866901 2.70021145,7.39866901 C1.48960882,6.73342623 0.682540405,4.20550369 1.62412023,2.60892103 C3.37276847,4.4716008 5.52495092,6.06818346 9.0222474,6.33428057 C8.08066757,2.60892103 13.1921009,0.613192712 15.2097719,3.14111525 C16.1513518,3.0080667 16.8239088,2.60892103 17.4964658,2.34282392 C17.227443,3.27416381 16.6893974,3.80635803 16.0168404,4.33855225 C16.6893974,4.20550369 17.3619544,4.07245514 17.9,3.80635803 C17.7654886,4.4716008 17.0929316,5.00379502 16.4203746,5.53598924 C16.2858632,11.6562228 12.3850325,15.9137765 6.46653074,16.1798736 Z" id="Shape"></path>
                    </g>
                </g>
            </g>
        </g>
    </g>
</svg>