<svg xmlns="http://www.w3.org/2000/svg" viewBox="-408 284.7 24 26.6" enable-background="new -408 284.7 24 26.6"><style type="text/css">.st0{fill:none;stroke:#FFFFFF;stroke-miterlimit:10;} .st1{fill:#FFFFFF;} .st2{fill:#FFFFFF;stroke:#FFFFFF;stroke-linejoin:round;stroke-miterlimit:10;}</style><circle class="st0" cx="-403.1" cy="304.9" r="1.4"/><path class="st1" d="M-406.4 307.2c-.5 0-.9.4-.9.9s.4.9.9.9.9-.4.9-.9c0-.4-.4-.9-.9-.9z"/><path class="st0" d="M-391.9 286.9c-2.8 0-5.2 1.6-6.5 3.9-.9-.6-2-1-3.1-1-3 0-5.4 2.5-5.4 5.5 0 3.1 2.4 5.5 5.4 5.5h.2c1 1.4 2.6 2.4 4.4 2.4 1.3 0 2.5-.5 3.4-1.3.5.1 1 .2 1.5.2 4.1 0 7.3-3.4 7.3-7.6.1-4.2-3.1-7.6-7.2-7.6z"/><circle class="st2" cx="-400.7" cy="295.9" r=".5"/><circle class="st2" cx="-396" cy="295.9" r=".5"/><circle class="st2" cx="-391.3" cy="295.9" r=".5"/></svg>